# Blender v2.79 (sub 0) OBJ File: ''
# www.blender.org
o Sphere.001
v 0.000000 0.000000 -1.000000
v 0.000000 0.382683 -0.923879
v 0.653281 0.382683 -0.653282
v 0.707107 0.000000 -0.707107
v 0.000000 0.707107 -0.707107
v 0.000000 0.923880 -0.382683
v 0.270598 0.923880 -0.270598
v 0.500000 0.707107 -0.500000
v 0.000000 -0.923880 -0.382683
v 0.000000 -0.707107 -0.707107
v 0.500000 -0.707107 -0.500000
v 0.270598 -0.923880 -0.270598
v 0.000000 -0.382684 -0.923879
v 0.653281 -0.382684 -0.653282
v 0.000000 1.000000 0.000000
v 0.000000 -1.000000 -0.000000
v 0.707107 -0.707107 -0.000000
v 0.382683 -0.923880 -0.000000
v 1.000000 0.000000 0.000000
v 0.923879 -0.382684 -0.000000
v 0.707107 0.707107 0.000000
v 0.923879 0.382683 0.000000
v 0.382683 0.923880 0.000000
v 0.270598 0.923880 0.270598
v 0.270598 -0.923880 0.270598
v 0.653281 -0.382684 0.653281
v 0.500000 -0.707107 0.500000
v 0.653281 0.382683 0.653281
v 0.707107 -0.000000 0.707106
v 0.500000 0.707107 0.500000
v 0.000000 -0.382684 0.923879
v 0.000000 -0.707107 0.707106
v 0.000000 0.382683 0.923879
v 0.000000 -0.000000 1.000000
v 0.000000 0.923880 0.382683
v 0.000000 0.707107 0.707106
v 0.000000 -0.923880 0.382683
v -0.500000 -0.707107 0.500000
v -0.270598 -0.923880 0.270598
v -0.707107 -0.000000 0.707106
v -0.653281 -0.382684 0.653281
v -0.500000 0.707107 0.500000
v -0.653281 0.382683 0.653281
v -0.270598 0.923880 0.270598
v -1.000000 0.000000 0.000000
v -0.923879 -0.382684 -0.000000
v -0.707107 0.707107 0.000000
v -0.923879 0.382683 0.000000
v -0.382683 0.923880 0.000000
v -0.382683 -0.923880 -0.000000
v -0.707107 -0.707107 -0.000000
v -0.270598 -0.923880 -0.270598
v -0.653281 -0.382684 -0.653281
v -0.500000 -0.707107 -0.500000
v -0.653281 0.382683 -0.653281
v -0.707107 0.000000 -0.707107
v -0.270598 0.923880 -0.270598
v -0.500000 0.707107 -0.500000
vn 0.3764 0.1807 -0.9087
vn 0.2243 0.8103 -0.5414
vn 0.2243 -0.8103 -0.5414
vn 0.3764 -0.1807 -0.9087
vn 0.3256 0.5253 -0.7862
vn 0.0805 0.9776 -0.1945
vn 0.0805 -0.9776 -0.1945
vn 0.3256 -0.5253 -0.7862
vn 0.5414 -0.8103 -0.2243
vn 0.9087 -0.1807 -0.3764
vn 0.7862 0.5253 -0.3256
vn 0.1945 0.9776 -0.0805
vn 0.1945 -0.9776 -0.0805
vn 0.7862 -0.5253 -0.3256
vn 0.9087 0.1807 -0.3764
vn 0.5414 0.8103 -0.2243
vn 0.1945 0.9776 0.0805
vn 0.1945 -0.9776 0.0805
vn 0.7862 -0.5253 0.3256
vn 0.9087 0.1807 0.3764
vn 0.5414 0.8103 0.2243
vn 0.5414 -0.8103 0.2243
vn 0.9087 -0.1807 0.3764
vn 0.7862 0.5253 0.3256
vn 0.3256 -0.5253 0.7862
vn 0.3764 0.1807 0.9087
vn 0.2243 0.8103 0.5414
vn 0.2243 -0.8103 0.5414
vn 0.3764 -0.1807 0.9087
vn 0.3256 0.5253 0.7862
vn 0.0805 0.9776 0.1945
vn 0.0805 -0.9776 0.1945
vn -0.2243 -0.8103 0.5414
vn -0.3764 -0.1807 0.9087
vn -0.3256 0.5253 0.7862
vn -0.0805 0.9776 0.1945
vn -0.0805 -0.9776 0.1945
vn -0.3256 -0.5253 0.7862
vn -0.3764 0.1807 0.9087
vn -0.2243 0.8103 0.5414
vn -0.9087 -0.1807 0.3764
vn -0.7862 0.5253 0.3256
vn -0.1945 0.9776 0.0805
vn -0.1945 -0.9776 0.0805
vn -0.7862 -0.5253 0.3256
vn -0.9087 0.1807 0.3764
vn -0.5414 0.8103 0.2243
vn -0.5414 -0.8103 0.2243
vn -0.1945 -0.9776 -0.0805
vn -0.7862 -0.5253 -0.3256
vn -0.9087 0.1807 -0.3764
vn -0.5414 0.8103 -0.2243
vn -0.5414 -0.8103 -0.2243
vn -0.9087 -0.1807 -0.3764
vn -0.7862 0.5253 -0.3256
vn -0.1945 0.9776 -0.0805
vn -0.3764 0.1807 -0.9087
vn -0.2243 0.8103 -0.5414
vn -0.2243 -0.8103 -0.5414
vn -0.3764 -0.1807 -0.9087
vn -0.3256 0.5253 -0.7862
vn -0.0805 0.9776 -0.1945
vn -0.0805 -0.9776 -0.1945
vn -0.3256 -0.5253 -0.7862
s 1
f 1//1 2//1 3//1 4//1
f 5//2 6//2 7//2 8//2
f 9//3 10//3 11//3 12//3
f 13//4 1//4 4//4 14//4
f 2//5 5//5 8//5 3//5
f 6//6 15//6 7//6
f 16//7 9//7 12//7
f 10//8 13//8 14//8 11//8
f 12//9 11//9 17//9 18//9
f 14//10 4//10 19//10 20//10
f 3//11 8//11 21//11 22//11
f 7//12 15//12 23//12
f 16//13 12//13 18//13
f 11//14 14//14 20//14 17//14
f 4//15 3//15 22//15 19//15
f 8//16 7//16 23//16 21//16
f 23//17 15//17 24//17
f 16//18 18//18 25//18
f 17//19 20//19 26//19 27//19
f 19//20 22//20 28//20 29//20
f 21//21 23//21 24//21 30//21
f 18//22 17//22 27//22 25//22
f 20//23 19//23 29//23 26//23
f 22//24 21//24 30//24 28//24
f 27//25 26//25 31//25 32//25
f 29//26 28//26 33//26 34//26
f 30//27 24//27 35//27 36//27
f 25//28 27//28 32//28 37//28
f 26//29 29//29 34//29 31//29
f 28//30 30//30 36//30 33//30
f 24//31 15//31 35//31
f 16//32 25//32 37//32
f 37//33 32//33 38//33 39//33
f 31//34 34//34 40//34 41//34
f 33//35 36//35 42//35 43//35
f 35//36 15//36 44//36
f 16//37 37//37 39//37
f 32//38 31//38 41//38 38//38
f 34//39 33//39 43//39 40//39
f 36//40 35//40 44//40 42//40
f 41//41 40//41 45//41 46//41
f 43//42 42//42 47//42 48//42
f 44//43 15//43 49//43
f 16//44 39//44 50//44
f 38//45 41//45 46//45 51//45
f 40//46 43//46 48//46 45//46
f 42//47 44//47 49//47 47//47
f 39//48 38//48 51//48 50//48
f 16//49 50//49 52//49
f 51//50 46//50 53//50 54//50
f 45//51 48//51 55//51 56//51
f 47//52 49//52 57//52 58//52
f 50//53 51//53 54//53 52//53
f 46//54 45//54 56//54 53//54
f 48//55 47//55 58//55 55//55
f 49//56 15//56 57//56
f 56//57 55//57 2//57 1//57
f 58//58 57//58 6//58 5//58
f 52//59 54//59 10//59 9//59
f 53//60 56//60 1//60 13//60
f 55//61 58//61 5//61 2//61
f 57//62 15//62 6//62
f 16//63 52//63 9//63
f 54//64 53//64 13//64 10//64
