# Blender v2.79 (sub 0) OBJ File: ''
# www.blender.org
o Cube
v 1.000000 -1.000000 -1.000000
v 1.000000 -1.000000 1.000000
v -1.000000 -1.000000 1.000000
v -1.000000 -1.000000 -1.000000
v 1.000000 1.000000 -0.999999
v 0.999999 1.000000 1.000001
v -1.000000 1.000000 1.000000
v -1.000000 1.000000 -1.000000
v 1.000000 4.090825 -0.999999
v 0.999999 4.090825 1.000001
v -1.000000 4.090825 -1.000000
v -1.000000 4.090825 1.000000
v 4.632035 1.000000 -0.999997
v 4.632034 1.000000 1.000003
v 4.632035 4.090825 -0.999997
v 4.632034 4.090825 1.000003
v 0.999997 1.000000 5.429970
v 0.999997 4.090825 5.429970
v 4.632032 1.000000 5.429973
v 4.632032 4.090825 5.429973
v 1.000001 -0.999999 -5.600672
v -0.999999 -0.999999 -5.600672
v 1.000002 1.000001 -5.600671
v -0.999999 1.000001 -5.600672
v 1.000001 -0.999999 -6.741190
v -0.999998 -0.999999 -6.741190
v 1.000002 1.000001 -6.741189
v -0.999999 1.000001 -6.741190
v 1.000002 3.292333 -5.600671
v -0.999999 3.292333 -5.600672
v 1.000002 3.292333 -6.741189
v -0.999999 3.292333 -6.741190
v 2.928086 -1.000000 -5.600672
v 2.928087 1.000000 -5.600671
v 2.928087 -0.999999 -6.741190
v 2.928087 1.000001 -6.741189
v -6.180053 -1.000001 -1.000002
v -6.180054 0.999999 -1.000001
v -6.180052 -1.000000 -5.600674
v -6.180053 1.000000 -5.600673
v 1.000000 -5.649156 -1.000000
v 1.000000 -5.649156 1.000000
v -1.000000 -5.649156 -1.000000
v -1.000000 -5.649156 1.000000
v 5.722365 1.000000 -0.999997
v 5.722364 1.000000 1.000003
v 5.722365 4.090825 -0.999997
v 5.722364 4.090825 1.000003
v 4.632035 5.396728 -0.999997
v 4.632034 5.396728 1.000003
v 5.722365 5.396728 -0.999997
v 5.722364 5.396728 1.000003
v 4.632035 5.931520 -0.999997
v 4.632034 5.931520 1.000003
v 5.722365 5.931520 -0.999997
v 5.722364 5.931520 1.000003
v 11.038790 4.090825 -0.999994
v 11.038790 4.090825 1.000006
v 11.038790 5.396728 -0.999994
v 11.038790 5.396728 1.000006
v 4.632037 5.396728 -4.208277
v 5.722367 5.396728 -4.208276
v 4.632037 5.931520 -4.208277
v 5.722367 5.931520 -4.208276
v 0.999998 -1.000001 8.077520
v -1.000002 -1.000001 8.077520
v 0.999997 0.999999 8.077521
v -1.000002 0.999999 8.077520
vt 0.920464 0.464071
vt 0.993955 0.464071
vt 0.993955 0.643286
vt 0.920464 0.643286
vt 0.724866 1.000000
vt 0.651375 1.000000
vt 0.651375 0.880855
vt 0.724866 0.880855
vt 0.170835 0.177347
vt 0.244326 0.177347
vt 0.244326 0.254443
vt 0.170835 0.254442
vt 0.455289 0.375457
vt 0.528780 0.375456
vt 0.528780 0.648281
vt 0.455289 0.648281
vt 0.317817 0.179216
vt 0.317817 0.256311
vt 0.244326 0.256311
vt 0.244326 0.179216
vt 0.455289 0.449780
vt 0.455289 0.526876
vt 0.286235 0.526876
vt 0.286235 0.449780
vt 0.073491 0.775129
vt 0.000000 0.775129
vt 0.000000 0.698033
vt 0.073491 0.698033
vt 0.206952 0.698033
vt 0.206952 0.775129
vt 0.317817 0.375456
vt 0.244326 0.375456
vt 0.739444 0.386975
vt 0.739444 0.464071
vt 0.625870 0.464071
vt 0.625870 0.386975
vt 0.739444 0.246967
vt 0.625870 0.246967
vt 0.625870 0.204937
vt 0.739444 0.204937
vt 0.746938 0.541167
vt 0.746938 0.464071
vt 0.880399 0.464071
vt 0.880399 0.541167
vt 0.073491 0.527267
vt 0.206952 0.527267
vt 0.577884 0.740847
vt 0.691458 0.740847
vt 0.691458 0.880855
vt 0.577884 0.880855
vt 0.853018 0.417734
vt 0.739444 0.417734
vt 0.739444 0.246967
vt 0.853018 0.246967
vt 0.746938 0.711933
vt 0.860512 0.711933
vt 0.860512 0.882699
vt 0.746938 0.882699
vt 0.880399 0.711933
vt 0.746938 0.711933
vt 0.820429 0.971064
vt 0.746938 0.971064
vt 0.746938 0.882699
vt 0.820429 0.882699
vt 0.170835 0.000000
vt 0.244326 0.000000
vt 0.577884 0.541167
vt 0.577884 0.464071
vt 0.746938 0.464071
vt 0.746938 0.541167
vt 0.746938 0.740847
vt 0.577884 0.740847
vt 0.317817 0.814921
vt 0.317817 0.892017
vt 0.244326 0.892017
vt 0.244326 0.814921
vt 0.388666 0.814921
vt 0.388666 0.892017
vt 0.570689 0.576225
vt 0.570689 0.653321
vt 0.528780 0.653321
vt 0.528780 0.576225
vt 0.244326 0.526876
vt 0.244326 0.449780
vt 0.528780 0.895878
vt 0.528780 0.818782
vt 0.570689 0.818782
vt 0.570689 0.895878
vt 0.733367 0.829212
vt 0.691458 0.829212
vt 0.691458 0.740847
vt 0.733367 0.740847
vt 0.570689 0.741686
vt 0.528780 0.741686
vt 0.244326 0.726557
vt 0.317817 0.726557
vt 0.433217 0.892017
vt 0.433217 0.969113
vt 0.391308 0.969113
vt 0.391308 0.892017
vt 0.244326 0.375456
vt 0.286235 0.375457
vt 0.860512 0.993966
vt 0.860512 0.916871
vt 0.931361 0.916871
vt 0.931361 0.993966
vt 0.570689 0.970201
vt 0.528780 0.970201
vt 0.528780 0.895878
vt 0.570689 0.895878
vt 1.000000 0.424314
vt 0.926509 0.424314
vt 0.926509 0.246967
vt 1.000000 0.246967
vt 0.146982 0.974809
vt 0.073491 0.974809
vt 0.073491 0.775129
vt 0.146982 0.775129
vt 0.455289 0.726557
vt 0.286235 0.726557
vt 0.000000 0.775129
vt 0.073491 0.775129
vt 0.073491 0.974809
vt 0.000000 0.974809
vt 0.317817 0.892017
vt 0.391308 0.892017
vt 0.391308 0.969113
vt 0.317817 0.969113
vt 0.000000 0.254443
vt 0.000000 0.177347
vt 0.244326 0.000000
vt 0.317817 0.000000
vt 0.920655 0.000000
vt 0.994146 0.000000
vt 0.994146 0.179216
vt 0.920655 0.179216
vt 0.577884 0.880855
vt 0.651375 0.880855
vt 0.651375 1.000000
vt 0.577884 1.000000
vt 0.146982 0.852225
vt 0.146982 0.775129
vt 0.194968 0.775129
vt 0.194968 0.852225
vt 0.853018 0.246967
vt 0.739444 0.246967
vt 0.739444 0.204937
vt 0.853018 0.204937
vt 0.920464 0.464071
vt 0.920464 0.541167
vt 0.428731 0.850229
vt 0.388666 0.850229
vt 0.388666 0.726557
vt 0.428731 0.726557
vt 0.577884 0.204937
vt 0.577884 0.000000
vt 0.625870 0.000000
vt 0.901004 0.204937
vt 0.901004 0.246967
vt 0.577884 0.246967
vt 0.528780 0.452552
vt 0.528780 0.375457
vt 0.568845 0.375456
vt 0.568845 0.452552
vt 0.214619 0.775129
vt 0.214619 0.852225
vt 0.920655 0.204937
vt 0.920655 0.246967
vt 0.226603 0.527267
vt 0.226603 0.604362
vt 0.206952 0.604362
vt 0.206952 0.527267
vt 0.576766 0.741686
vt 0.576766 0.818782
vt 0.528780 0.818782
vt 0.528780 0.741686
vt 0.926509 0.451905
vt 0.853018 0.451905
vt 0.853018 0.246968
vt 0.926509 0.246967
vt 0.853018 0.000000
vt 0.901004 0.000000
vt 0.860512 0.711933
vt 0.934003 0.711933
vt 0.934003 0.916871
vt 0.860512 0.916870
vt 0.428731 0.768587
vt 0.428731 0.726557
vt 0.448382 0.726557
vt 0.448382 0.768587
vt 0.226603 0.728035
vt 0.206952 0.728035
vt 0.214619 0.975897
vt 0.194968 0.975897
vt 0.568845 0.576225
vt 0.528780 0.576225
vt 0.244326 0.969113
vt 0.244326 0.892017
vt 0.317817 0.892017
vt 0.317817 0.969113
vt 0.577884 0.179215
vt 0.577884 0.256311
vt 0.244326 0.527267
vt 0.170835 0.527267
vt 0.528780 0.921105
vt 0.455289 0.921105
vt 0.455289 0.648281
vt 0.528780 0.648281
vn 0.0000 0.0000 -1.0000
vn -0.0000 0.0000 1.0000
vn 1.0000 0.0000 0.0000
vn -0.0000 1.0000 0.0000
vn -1.0000 -0.0000 -0.0000
vn 0.0000 -1.0000 -0.0000
s off
f 4/1/1 1/2/1 41/3/1 43/4/1
f 7/5/2 6/6/2 10/7/2 12/8/2
f 1/9/3 5/10/3 6/11/3 2/12/3
f 6/13/4 7/14/4 68/15/4 67/16/4
f 3/17/5 7/18/5 8/19/5 4/20/5
f 1/21/6 4/22/6 22/23/6 21/24/6
f 9/25/4 11/26/4 12/27/4 10/28/4
f 9/25/4 10/28/4 16/29/4 15/30/4
f 8/19/5 7/18/5 12/31/5 11/32/5
f 5/33/1 8/34/1 11/35/1 9/36/1
f 13/37/1 15/38/1 47/39/1 45/40/1
f 6/41/6 5/42/6 13/43/6 14/44/6
f 5/33/1 9/36/1 15/38/1 13/37/1
f 16/29/4 10/28/4 18/45/4 20/46/4
f 18/47/2 17/48/2 19/49/2 20/50/2
f 14/51/3 16/52/3 20/53/3 19/54/3
f 10/55/5 6/56/5 17/57/5 18/58/5
f 6/41/6 14/44/6 19/59/6 17/60/6
f 24/61/2 23/62/2 29/63/2 30/64/2
f 5/10/3 1/9/3 21/65/3 23/66/3
f 8/67/4 5/68/4 23/69/4 24/70/4
f 8/67/4 24/70/4 40/71/4 38/72/4
f 27/73/1 25/74/1 26/75/1 28/76/1
f 25/74/1 27/73/1 36/77/1 35/78/1
f 22/79/5 24/80/5 28/81/5 26/82/5
f 21/24/6 22/23/6 26/83/6 25/84/6
f 30/85/4 29/86/4 31/87/4 32/88/4
f 23/89/3 27/90/3 31/91/3 29/92/3
f 28/81/5 24/80/5 30/93/5 32/94/5
f 27/73/1 28/76/1 32/95/1 31/96/1
f 34/97/3 33/98/3 35/99/3 36/100/3
f 21/24/6 25/84/6 35/101/6 33/102/6
f 23/103/2 21/104/2 33/105/2 34/106/2
f 27/107/4 23/108/4 34/109/4 36/110/4
f 37/111/5 38/112/5 40/113/5 39/114/5
f 4/115/2 8/116/2 38/117/2 37/118/2
f 22/23/6 4/22/6 37/119/6 39/120/6
f 24/121/1 22/122/1 39/123/1 40/124/1
f 41/125/6 42/126/6 44/127/6 43/128/6
f 1/9/3 2/12/3 42/129/3 41/130/3
f 3/17/5 4/20/5 43/131/5 44/132/5
f 2/133/2 3/134/2 44/135/2 42/136/2
f 46/137/3 45/138/3 47/139/3 48/140/3
f 15/141/5 16/142/5 50/143/5 49/144/5
f 16/145/2 14/146/2 46/147/2 48/148/2
f 14/44/6 13/43/6 45/149/6 46/150/6
f 51/151/6 49/152/6 61/153/6 62/154/6
f 47/39/1 51/155/1 59/156/1 57/157/1
f 16/145/2 48/148/2 52/158/2 50/159/2
f 47/39/1 15/38/1 49/160/1 51/155/1
f 53/161/4 54/162/4 56/163/4 55/164/4
f 49/144/5 50/143/5 54/165/5 53/166/5
f 50/159/2 52/158/2 56/167/2 54/168/2
f 52/169/3 51/170/3 55/171/3 56/172/3
f 58/173/3 57/174/3 59/175/3 60/176/3
f 48/177/6 47/178/6 57/179/6 58/180/6
f 52/158/2 48/148/2 58/181/2 60/182/2
f 51/183/4 52/184/4 60/185/4 59/186/4
f 62/187/1 61/188/1 63/189/1 64/190/1
f 55/171/3 51/170/3 62/191/3 64/192/3
f 49/144/5 53/166/5 63/193/5 61/194/5
f 53/161/4 55/164/4 64/195/4 63/196/4
f 65/197/2 67/198/2 68/199/2 66/200/2
f 7/18/5 3/17/5 66/201/5 68/202/5
f 2/12/3 6/11/3 67/203/3 65/204/3
f 3/205/6 2/206/6 65/207/6 66/208/6
